<svg width="1306" height="1080" viewBox="0 0 1306 1080" fill="none" xmlns="http://www.w3.org/2000/svg">
<g style="mix-blend-mode:color-dodge" clip-path="url(#clip0_1_10314)" filter="url(#filter0_f_1_10314)">
<path d="M1050 209H256V844H1050V209Z" fill="#080715"/>
<path d="M1050 209H256V844H1050V209Z" fill="#907CFF" fill-opacity="0.387813"/>
<mask id="mask0_1_10314" style="mask-type:luminance" maskUnits="userSpaceOnUse" x="256" y="209" width="794" height="635">
<path d="M1050 209H256V844H1050V209Z" fill="white"/>
</mask>
<g mask="url(#mask0_1_10314)">
<g filter="url(#filter1_f_1_10314)">
<path d="M926.93 315.759H306.617V709.856H926.93V315.759Z" fill="#18A0FB"/>
<path d="M1014.77 230.828H461.944V570.156H1014.77V230.828Z" fill="#40465C"/>
<path d="M1235.6 267.737H623.225V639.609H1235.6V267.737Z" fill="#1E7ED7"/>
<path d="M965.638 514.594H530.426V845.588H965.638V514.594Z" fill="#677290"/>
</g>
</g>
</g>
<defs>
<filter id="filter0_f_1_10314" x="0" y="-47" width="1306" height="1147" filterUnits="userSpaceOnUse" color-interpolation-filters="sRGB">
<feFlood flood-opacity="0" result="BackgroundImageFix"/>
<feBlend mode="normal" in="SourceGraphic" in2="BackgroundImageFix" result="shape"/>
<feGaussianBlur stdDeviation="128" result="effect1_foregroundBlur_1_10314"/>
</filter>
<filter id="filter1_f_1_10314" x="23.8049" y="-51.9844" width="1494.61" height="1180.38" filterUnits="userSpaceOnUse" color-interpolation-filters="sRGB">
<feFlood flood-opacity="0" result="BackgroundImageFix"/>
<feBlend mode="normal" in="SourceGraphic" in2="BackgroundImageFix" result="shape"/>
<feGaussianBlur stdDeviation="141.406" result="effect1_foregroundBlur_1_10314"/>
</filter>
<clipPath id="clip0_1_10314">
<rect width="794" height="635" fill="white" transform="translate(256 209)"/>
</clipPath>
</defs>
</svg>
