<svg width="83" height="33" viewBox="0 0 83 33" fill="none" xmlns="http://www.w3.org/2000/svg">
<path opacity="0.56" d="M8.50062 24.0345L6.467 26.3382C5.89704 26.9838 6.35545 28 7.21668 28H77.1782C77.7305 28 78.1782 27.5523 78.1782 27V22.2705C78.1782 21.5081 77.3592 21.0262 76.6927 21.3963L76.63 21.4311C76.0923 21.7297 75.4151 21.4767 75.2048 20.8987L73.5581 16.3724C73.4144 15.9773 73.0388 15.7143 72.6184 15.7143H71.7525C71.3221 15.7143 70.94 15.4389 70.8039 15.0307L70.1626 13.1077C69.9181 12.3747 68.9639 12.1946 68.4691 12.7881C68.2817 13.0129 68.0041 13.1429 67.7114 13.1429H63.9695C63.7309 13.1429 63.5001 13.0575 63.3189 12.9023L62.5326 12.2286C62.0509 11.816 61.3117 11.9503 61.0059 12.506L59.5408 15.1684C59.1228 15.9281 58.0022 15.8321 57.7194 15.0125L55.7146 9.20135C55.6379 8.97902 55.4853 8.79084 55.2836 8.66988L53.0529 7.33214C52.8492 7.20996 52.6086 7.16429 52.3743 7.20333L49.9325 7.61011C49.5507 7.67371 49.1665 7.51128 48.9461 7.19309L47.5485 5.17537C47.1531 4.60441 46.3103 4.60056 45.9096 5.16789L44.0461 7.80656C43.6936 8.30579 42.9463 8.28483 42.6223 7.76663C42.2819 7.22232 41.4856 7.23302 41.16 7.78628L39.9853 9.78226C39.576 10.4778 38.5539 10.4269 38.2156 9.69429L36.5778 6.14756C36.2073 5.34507 35.0541 5.38271 34.7367 6.20766L32.9743 10.7877C32.8257 11.1738 32.4547 11.4286 32.041 11.4286H31.3997C30.9928 11.4286 30.6265 11.6751 30.4733 12.052L27.0869 20.3838C27.0365 20.5076 26.9619 20.6201 26.8674 20.7146L23.0984 24.4818C22.7261 24.8538 22.1292 24.8737 21.7331 24.5273L20.5697 23.5098C20.3089 23.2817 19.9486 23.2048 19.6174 23.3067L17.0152 24.107C16.6582 24.2168 16.3921 24.5164 16.3253 24.8839L16.0117 26.6075C15.9252 27.083 15.5111 27.4286 15.0279 27.4286H13.1985C12.8948 27.4286 12.6075 27.2906 12.4178 27.0535L10.031 24.0715C9.643 23.5867 8.91157 23.569 8.50062 24.0345Z" fill="url(#paint0_linear_1_42919)"/>
<g filter="url(#filter0_f_1_42919)">
<path d="M5 28L8.50062 24.0345C8.91158 23.569 9.643 23.5867 10.031 24.0715L12.4178 27.0535C12.6075 27.2906 12.8948 27.4286 13.1985 27.4286H15.0279C15.5111 27.4286 15.9252 27.083 16.0117 26.6075L16.3253 24.8839C16.3921 24.5164 16.6582 24.2168 17.0152 24.107L19.6174 23.3067C19.9486 23.2048 20.3089 23.2817 20.5697 23.5098L21.7331 24.5273C22.1292 24.8737 22.7261 24.8538 23.0984 24.4818L26.8674 20.7146C26.9619 20.6201 27.0365 20.5076 27.0869 20.3838L30.4733 12.052C30.6265 11.6751 30.9928 11.4286 31.3997 11.4286H32.041C32.4547 11.4286 32.8257 11.1738 32.9743 10.7877L34.7367 6.20766C35.0541 5.38271 36.2073 5.34507 36.5778 6.14756L38.2156 9.69429C38.5539 10.4269 39.576 10.4778 39.9853 9.78226L41.16 7.78628C41.4856 7.23302 42.2819 7.22232 42.6223 7.76663V7.76663C42.9463 8.28483 43.6936 8.30579 44.0461 7.80656L45.9096 5.16789C46.3103 4.60056 47.1531 4.60441 47.5485 5.17537L48.9461 7.19309C49.1665 7.51128 49.5507 7.67371 49.9325 7.61011L52.3743 7.20333C52.6086 7.16429 52.8492 7.20996 53.0529 7.33214L55.2836 8.66988C55.4853 8.79084 55.6379 8.97902 55.7146 9.20135L57.7194 15.0125C58.0022 15.8321 59.1228 15.9281 59.5408 15.1684L61.0059 12.506C61.3117 11.9503 62.0509 11.816 62.5326 12.2286L63.3189 12.9023C63.5001 13.0575 63.7309 13.1429 63.9695 13.1429H67.7114C68.0041 13.1429 68.2817 13.0129 68.4691 12.7881V12.7881C68.9639 12.1946 69.9181 12.3747 70.1626 13.1077L70.8039 15.0307C70.94 15.4389 71.3221 15.7143 71.7525 15.7143H72.6184C73.0388 15.7143 73.4144 15.9773 73.5581 16.3724L75.2048 20.8987C75.4151 21.4767 76.0923 21.7297 76.63 21.4311L78.1782 20.5714" stroke="#30E0A1" stroke-linecap="round"/>
</g>
<path d="M5 28L8.50062 24.0345C8.91158 23.569 9.643 23.5867 10.031 24.0715L12.4178 27.0535C12.6075 27.2906 12.8948 27.4286 13.1985 27.4286H15.0279C15.5111 27.4286 15.9252 27.083 16.0117 26.6075L16.3253 24.8839C16.3921 24.5164 16.6582 24.2168 17.0152 24.107L19.6174 23.3067C19.9486 23.2048 20.3089 23.2817 20.5697 23.5098L21.7331 24.5273C22.1292 24.8737 22.7261 24.8538 23.0984 24.4818L26.8674 20.7146C26.9619 20.6201 27.0365 20.5076 27.0869 20.3838L30.4733 12.052C30.6265 11.6751 30.9928 11.4286 31.3997 11.4286H32.041C32.4547 11.4286 32.8257 11.1738 32.9743 10.7877L34.7367 6.20766C35.0541 5.38271 36.2073 5.34507 36.5778 6.14756L38.2156 9.69429C38.5539 10.4269 39.576 10.4778 39.9853 9.78226L41.16 7.78628C41.4856 7.23302 42.2819 7.22232 42.6223 7.76663V7.76663C42.9463 8.28483 43.6936 8.30579 44.0461 7.80656L45.9096 5.16789C46.3103 4.60056 47.1531 4.60441 47.5485 5.17537L48.9461 7.19309C49.1665 7.51128 49.5507 7.67371 49.9325 7.61011L52.3743 7.20333C52.6086 7.16429 52.8492 7.20996 53.0529 7.33214L55.2836 8.66988C55.4853 8.79084 55.6379 8.97902 55.7146 9.20135L57.7194 15.0125C58.0022 15.8321 59.1228 15.9281 59.5408 15.1684L61.0059 12.506C61.3117 11.9503 62.0509 11.816 62.5326 12.2286L63.3189 12.9023C63.5001 13.0575 63.7309 13.1429 63.9695 13.1429H67.7114C68.0041 13.1429 68.2817 13.0129 68.4691 12.7881V12.7881C68.9639 12.1946 69.9181 12.3747 70.1626 13.1077L70.8039 15.0307C70.94 15.4389 71.3221 15.7143 71.7525 15.7143H72.6184C73.0388 15.7143 73.4144 15.9773 73.5581 16.3724L75.2048 20.8987C75.4151 21.4767 76.0923 21.7297 76.63 21.4311L78.1782 20.5714" stroke="#30E0A1" stroke-linecap="round"/>
<defs>
<filter id="filter0_f_1_42919" x="0.5" y="0.244751" width="82.1782" height="32.2552" filterUnits="userSpaceOnUse" color-interpolation-filters="sRGB">
<feFlood flood-opacity="0" result="BackgroundImageFix"/>
<feBlend mode="normal" in="SourceGraphic" in2="BackgroundImageFix" result="shape"/>
<feGaussianBlur stdDeviation="2" result="effect1_foregroundBlur_1_42919"/>
</filter>
<linearGradient id="paint0_linear_1_42919" x1="41.5891" y1="-7.53846" x2="41.5891" y2="28" gradientUnits="userSpaceOnUse">
<stop stop-color="#30E0A1"/>
<stop offset="1" stop-color="#30E0A1" stop-opacity="0"/>
</linearGradient>
</defs>
</svg>
