<svg width="31" height="27" viewBox="0 0 31 27" fill="none" xmlns="http://www.w3.org/2000/svg">
<path d="M13.066 14.2143C14.5583 14.9645 15.3045 15.3396 16.124 15.3402C16.9434 15.3408 17.6903 14.9668 19.1842 14.2189L28.7067 9.45145C29.1365 9.23624 29.4016 8.83731 29.4016 8.40543C29.4016 7.97356 29.1365 7.57462 28.7067 7.35941L19.1808 2.59017C17.6885 1.84306 16.9424 1.46951 16.1237 1.46979C15.3051 1.47007 14.5593 1.84413 13.0677 2.59224L4.87862 6.69957C4.81791 6.73002 4.78757 6.74526 4.75928 6.75968C1.96195 8.18594 0.23367 10.7898 0.210561 13.6129C0.210327 13.6414 0.210327 13.6719 0.210327 13.7329C0.210327 13.7938 0.210327 13.8243 0.21056 13.8528C0.233619 16.6727 1.95805 19.2742 4.75039 20.7016C4.77861 20.716 4.80894 20.7312 4.86951 20.7617L9.99915 23.3412C12.9882 24.8443 14.4827 25.5959 16.1239 25.5964C17.7651 25.5968 19.2602 24.8462 22.2504 23.3448L27.6654 20.626C29.1626 19.8742 29.9113 19.4984 30.3223 18.8787C30.7334 18.2591 30.7334 17.5065 30.7334 16.0012V13.0934C30.7334 12.6759 30.4737 12.2911 30.0549 12.0879C29.6496 11.8913 29.1555 11.8942 28.7533 12.0955L17.6497 17.6546C16.9048 18.0276 16.5322 18.2141 16.1235 18.2142C15.7147 18.2143 15.3421 18.028 14.5969 17.6555L7.08172 13.8982C6.70528 13.71 6.51704 13.6159 6.36585 13.5989C6.02118 13.5601 5.68977 13.7283 5.55847 14.0086C5.50091 14.1315 5.50205 14.3205 5.50439 14.6986C5.50611 14.9769 5.50696 15.1161 5.53682 15.2441C5.60373 15.5307 5.77686 15.7903 6.02967 15.9828C6.14256 16.0688 6.28091 16.1384 6.55772 16.2775L14.5926 20.3166C15.3398 20.6922 15.7134 20.88 16.1236 20.8801C16.5339 20.8802 16.9076 20.6925 17.655 20.3173L27.5034 15.3728C27.7587 15.2446 27.8864 15.1805 27.9821 15.2287C28.0778 15.2769 28.0778 15.4052 28.0778 15.6619V16.9808C28.0778 17.3571 28.0778 17.5452 27.975 17.7002C27.8723 17.8551 27.6851 17.949 27.3107 18.137L19.1877 22.2152C17.6923 22.966 16.9445 23.3414 16.1238 23.3411C15.303 23.3407 14.5557 22.9648 13.061 22.2128L5.46123 18.3892C5.4371 18.377 5.42503 18.3709 5.41377 18.3652C3.82029 17.5542 2.83705 16.0705 2.82782 14.4631C2.82776 14.4517 2.82776 14.4396 2.82776 14.4153V13.2046C2.82776 12.3172 3.37039 11.497 4.25186 11.052C5.03076 10.6588 5.99152 10.658 6.77124 11.05L13.066 14.2143Z" fill="#F2F7F7"/>
</svg>
