<svg width="16" height="19" viewBox="0 0 16 19" fill="none" xmlns="http://www.w3.org/2000/svg">
<path d="M8 1C9.81936 2.95177 12.1939 3.96798 14.6206 3.83333C14.9739 5.29063 15.082 6.81916 14.9385 8.32812C14.7949 9.83707 14.4027 11.2956 13.7851 12.6172C13.1675 13.9387 12.3372 15.0962 11.3434 16.0209C10.3495 16.9456 9.21257 17.6186 8 18C6.78743 17.6186 5.65046 16.9456 4.65665 16.0209C3.66283 15.0962 2.83246 13.9387 2.21486 12.6172C1.59727 11.2956 1.20506 9.83707 1.06154 8.32812C0.918026 6.81916 1.02613 5.29063 1.37943 3.83333C3.80608 3.96798 6.18064 2.95177 8 1Z" stroke="#24DD57" stroke-width="2" stroke-linecap="round" stroke-linejoin="round"/>
</svg>
