<svg width="49" height="44" viewBox="0 0 49 44" fill="none" xmlns="http://www.w3.org/2000/svg">
<path d="M38.1166 14.7456L20.8252 14.7574L18.6373 22.2445H35.8225L31.364 37.4123L17.558 37.4709C14.9336 37.4827 13.0288 34.9791 13.7601 32.4697L23.2137 0H9.43721L0.414074 30.7342C-1.49081 37.2305 3.41589 43.7268 10.2275 43.7151L43.0292 43.6623L47.8003 27.621C49.711 21.1892 44.8633 14.7398 38.1166 14.7456Z" fill="#3772FF"/>
<path d="M23.2967 29.6564H21.8047L22.819 26.2852H26.2101L25.7383 27.8506C25.4139 28.9235 24.4232 29.6564 23.2967 29.6564Z" fill="white"/>
<path d="M28.9695 29.6564H27.3418L28.3562 26.2852H31.7472L31.2341 27.9796C30.9334 28.9763 30.0134 29.6564 28.9636 29.6564" fill="white"/>
</svg>
