<svg width="236" height="72" viewBox="0 0 236 72" fill="none" xmlns="http://www.w3.org/2000/svg">
<g filter="url(#filter0_b_1_10285)">
<rect width="236" height="72" rx="16" fill="#474060" fill-opacity="0.37"/>
<rect x="0.5" y="0.5" width="235" height="71" rx="15.5" stroke="white" stroke-opacity="0.05"/>
<path d="M41 45V43C41 41.9391 40.5786 40.9217 39.8284 40.1716C39.0783 39.4214 38.0609 39 37 39H30C28.9391 39 27.9217 39.4214 27.1716 40.1716C26.4214 40.9217 26 41.9391 26 43V45M40.025 27.3008C41.4777 27.9003 42.5001 29.3307 42.5001 30.9999C42.5001 32.682 41.4618 34.1215 39.9912 34.7127M46 44.9999V42.9999C45.9993 42.1136 45.7044 41.2527 45.1614 40.5522C44.6184 39.8517 43.8581 39.3515 43 39.1299M37.5 31C37.5 33.2091 35.7091 35 33.5 35C31.2909 35 29.5 33.2091 29.5 31C29.5 28.7909 31.2909 27 33.5 27C35.7091 27 37.5 28.7909 37.5 31Z" stroke="white" stroke-width="2" stroke-linecap="round" stroke-linejoin="round"/>
<path fill-rule="evenodd" clip-rule="evenodd" d="M150 25C143.925 25 139 29.9249 139 36C139 42.0751 143.925 47 150 47C156.075 47 161 42.0751 161 36C161 29.9249 156.075 25 150 25ZM149.254 42.1678C149.254 42.618 149.53 42.8865 149.957 42.8865C150.383 42.8865 150.659 42.618 150.659 42.1678V41.386C152.452 41.1885 154 40.1461 154 38.2034C154 36.6555 152.847 35.6683 150.817 35.2024L149.791 34.9654C148.74 34.7285 148.03 34.2784 148.03 33.5518C148.03 32.7068 148.756 32.1698 149.964 32.1698C151.023 32.1698 151.639 32.5726 151.994 33.4018C152.192 33.7808 152.436 34.002 152.894 34.002C153.4 34.002 153.747 33.7256 153.747 33.2675C153.747 33.1175 153.716 32.9753 153.676 32.8253C153.329 31.6644 152.207 30.8272 150.659 30.6377V29.8322C150.659 29.382 150.383 29.1135 149.957 29.1135C149.53 29.1135 149.254 29.382 149.254 29.8322V30.6377C147.485 30.8588 146.111 31.9329 146.111 33.7177C146.111 35.2103 147.303 36.2369 149.104 36.6476L150.178 36.9003C151.386 37.1846 152.113 37.5953 152.113 38.3929C152.113 39.3327 151.299 39.8381 150.028 39.8381C148.827 39.8381 148.085 39.3958 147.769 38.5903C147.603 38.2191 147.343 37.9506 146.885 37.9506C146.34 37.9506 146 38.2823 146 38.7799C146 38.9141 146.024 39.0642 146.079 39.2142C146.419 40.3119 147.579 41.1727 149.254 41.3702V42.1678Z" fill="white"/>
<path d="M196 36L201 41L211 31" stroke="#3BE660" stroke-width="2" stroke-linecap="round" stroke-linejoin="round"/>
<path d="M98 38H94L91 47L85 29L82 38H78" stroke="white" stroke-width="2" stroke-linecap="round" stroke-linejoin="round"/>
</g>
<defs>
<filter id="filter0_b_1_10285" x="-32" y="-32" width="300" height="136" filterUnits="userSpaceOnUse" color-interpolation-filters="sRGB">
<feFlood flood-opacity="0" result="BackgroundImageFix"/>
<feGaussianBlur in="BackgroundImageFix" stdDeviation="16"/>
<feComposite in2="SourceAlpha" operator="in" result="effect1_backgroundBlur_1_10285"/>
<feBlend mode="normal" in="SourceGraphic" in2="effect1_backgroundBlur_1_10285" result="shape"/>
</filter>
</defs>
</svg>
