<svg width="24" height="24" viewBox="0 0 24 24" fill="none" xmlns="http://www.w3.org/2000/svg">
<path fill-rule="evenodd" clip-rule="evenodd" d="M2.03702 11.2933C8.23851 8.59139 12.3738 6.81015 14.4429 5.94954C20.3506 3.49232 21.5782 3.06547 22.3783 3.05138C22.5543 3.04828 22.9478 3.09189 23.2026 3.2987C23.4178 3.47333 23.4771 3.70923 23.5054 3.8748C23.5337 4.04037 23.569 4.41753 23.541 4.71224C23.2208 8.07599 21.8356 16.2389 21.1308 20.0064C20.8326 21.6005 20.2455 22.135 19.677 22.1873C18.4417 22.301 17.5036 21.3709 16.3071 20.5866C14.4348 19.3593 13.3771 18.5953 11.5597 17.3977C9.4594 16.0136 10.8209 15.2529 12.0179 14.0097C12.3311 13.6843 17.7742 8.73349 17.8795 8.28437C17.8927 8.2282 17.9049 8.01883 17.7805 7.90827C17.6561 7.79771 17.4726 7.83552 17.3401 7.86559C17.1523 7.90821 14.1613 9.88515 8.36704 13.7964C7.51805 14.3794 6.74906 14.6634 6.06007 14.6486C5.30052 14.6322 3.83945 14.2191 2.75329 13.866C1.42107 13.433 0.36225 13.204 0.454449 12.4686C0.502472 12.0855 1.03 11.6937 2.03702 11.2933Z" fill="white"/>
</svg>
