<svg width="17" height="19" viewBox="0 0 17 19" fill="none" xmlns="http://www.w3.org/2000/svg">
<path d="M3.20047 5.73935C3.1025 6.68935 3.03375 8.3706 3.65078 9.08623C3.65078 9.08623 3.36031 7.23935 5.96422 4.92216C7.01266 3.98935 7.255 2.7206 6.88891 1.76904C6.68094 1.22998 6.30109 0.784664 5.97109 0.473727C5.77859 0.290914 5.92641 -0.010648 6.20656 0.000289463C7.90125 0.0690395 10.6478 0.497164 11.8148 3.15966C12.327 4.32841 12.3648 5.53623 12.1208 6.76435C11.9661 7.54873 11.4161 9.29248 12.6708 9.50654C13.5662 9.65966 13.9994 9.01279 14.1936 8.54716C14.2744 8.35341 14.5545 8.30498 14.7058 8.45966C16.2183 10.0237 16.3472 11.8659 16.0344 13.4518C15.4294 16.5175 12.0142 18.7487 8.62141 18.7487C4.38297 18.7487 1.00906 16.544 0.13422 12.5534C-0.218124 10.9425 -0.0393735 7.75498 2.69344 5.50498C2.89625 5.33623 3.22797 5.48623 3.20047 5.73935Z" fill="url(#paint0_radial_1_42911)"/>
<defs>
<radialGradient id="paint0_radial_1_42911" cx="0" cy="0" r="1" gradientUnits="userSpaceOnUse" gradientTransform="translate(7.78198 18.7973) rotate(-179.774) scale(12.1322 18.0969)">
<stop offset="0.3144" stop-color="#FF9800"/>
<stop offset="0.6616" stop-color="#FF6D00"/>
<stop offset="0.9715" stop-color="#F44336"/>
</radialGradient>
</defs>
</svg>
