<svg width="93" height="35" viewBox="0 0 93 35" fill="none" xmlns="http://www.w3.org/2000/svg">
<path opacity="0.56" d="M9.82388 22.5713L8.00749 27.2142C7.77129 27.8179 6.99313 27.9808 6.53464 27.5224C5.96825 26.9562 5 27.3573 5 28.1582V30.0002C5 30.5525 5.44772 31.0002 6 31.0002H87C87.5523 31.0002 88 30.5525 88 30.0002V11.0914C88 10.2124 86.9474 9.76102 86.3106 10.367L85.2329 11.3926C84.7857 11.8182 84.0636 11.741 83.7166 11.2305L81.2326 7.57717C80.9704 7.19161 80.4458 7.0907 80.0593 7.3515C79.675 7.61084 79.1536 7.51268 78.8899 7.13135L78.0071 5.85488C77.6844 5.38827 77.0387 5.28326 76.5847 5.62359L75.9627 6.09001C75.8201 6.1969 75.6516 6.26376 75.4745 6.28367L70.8207 6.80708C70.4278 6.85127 70.0978 7.12285 69.9788 7.49994L67.9253 14.0089C67.6458 14.8947 66.4148 14.9541 66.0514 14.0993L64.3058 9.99446C64.1489 9.62539 63.7866 9.38579 63.3856 9.38579H61.805C61.3274 9.38579 60.9165 9.72345 60.8239 10.1919L60.0284 14.2182C59.9358 14.6867 59.5249 15.0243 59.0474 15.0243H58.1555C58.0003 15.0243 57.8472 14.9882 57.7084 14.9188L56.3486 14.2391C55.8387 13.9843 55.2193 14.2065 54.9877 14.7274L52.8711 19.4885C52.6265 20.0387 51.8951 20.1524 51.495 19.7024C51.1045 19.2632 50.3935 19.359 50.1332 19.886L50.0733 20.0072C49.7427 20.6765 48.7945 20.6936 48.4399 20.0367L45.6002 14.7764C45.1916 14.0195 44.0814 14.0974 43.7825 14.904L43.4616 15.7704C43.2876 16.2401 42.793 16.5086 42.3044 16.3987L41.2038 16.1511C40.7248 16.0433 40.2383 16.2994 40.0559 16.7552L38.0945 21.6574C37.9543 22.008 37.6285 22.2497 37.2523 22.2822L34.7746 22.4966C34.4435 22.5252 34.1482 22.7166 33.9867 23.0071L32.5636 25.568C32.141 26.3284 31.0161 26.2239 30.7409 25.3985L30.3604 24.2572C30.1117 23.5115 29.1393 23.331 28.6397 23.938L23.891 29.7061C23.4097 30.2906 22.4786 30.149 22.1929 29.4479L20.6143 25.5741C20.2867 24.7704 19.161 24.7369 18.7862 25.5197L17.9759 27.2123C17.8704 27.4327 17.6877 27.6069 17.4625 27.7019L16.5794 28.0744C16.0425 28.3008 15.4265 28.0221 15.2421 27.4693L14.1407 24.1659C14.0046 23.7576 13.6225 23.4822 13.1921 23.4822H12.8113C12.4582 23.4822 12.1312 23.2959 11.9511 22.9921L11.6154 22.4257C11.1906 21.7092 10.1274 21.7956 9.82388 22.5713Z" fill="url(#paint0_linear_1_4783)"/>
<g filter="url(#filter0_f_1_4783)">
<path d="M5 25.9882L6.42546 27.4133C6.93544 27.9231 7.80101 27.742 8.06374 27.0704L9.82388 22.5713C10.1274 21.7956 11.1906 21.7092 11.6154 22.4257L11.9511 22.9921C12.1312 23.2959 12.4582 23.4822 12.8113 23.4822H13.1921C13.6225 23.4822 14.0046 23.7576 14.1407 24.1659L15.2421 27.4693C15.4265 28.0221 16.0425 28.3008 16.5794 28.0744L17.4625 27.7019C17.6877 27.6069 17.8704 27.4327 17.9759 27.2123L18.7862 25.5197C19.161 24.7369 20.2867 24.7704 20.6143 25.5741L22.1929 29.4479C22.4786 30.149 23.4097 30.2906 23.891 29.7061L28.6397 23.938C29.1393 23.331 30.1117 23.5115 30.3604 24.2572L30.7409 25.3985C31.0161 26.2239 32.141 26.3284 32.5636 25.568L33.9867 23.0071C34.1482 22.7166 34.4435 22.5252 34.7746 22.4966L37.2523 22.2822C37.6285 22.2497 37.9543 22.008 38.0945 21.6574L40.0559 16.7552C40.2383 16.2994 40.7248 16.0433 41.2038 16.1511L42.3044 16.3987C42.793 16.5086 43.2876 16.2401 43.4616 15.7704L43.7825 14.9041C44.0814 14.0974 45.1916 14.0195 45.6002 14.7764L48.4399 20.0367C48.7945 20.6936 49.7427 20.6765 50.0733 20.0072L50.1332 19.886C50.3935 19.3591 51.1045 19.2632 51.495 19.7024V19.7024C51.8951 20.1524 52.6265 20.0387 52.8711 19.4885L54.9877 14.7274C55.2193 14.2065 55.8387 13.9843 56.3486 14.2391L57.7084 14.9188C57.8472 14.9882 58.0003 15.0243 58.1555 15.0243H59.0474C59.5249 15.0243 59.9358 14.6867 60.0284 14.2182L60.8239 10.1919C60.9165 9.72345 61.3274 9.38579 61.805 9.38579H63.3856C63.7866 9.38579 64.1489 9.62539 64.3058 9.99446L66.0514 14.0993C66.4148 14.9541 67.6458 14.8947 67.9253 14.0089L69.9788 7.49994C70.0978 7.12285 70.4278 6.85127 70.8207 6.80708L75.4745 6.28367C75.6516 6.26376 75.8201 6.1969 75.9627 6.09001L76.5847 5.62359C77.0386 5.28326 77.6844 5.38827 78.0071 5.85488L78.8899 7.13135C79.1536 7.51268 79.675 7.61084 80.0593 7.3515V7.3515C80.4458 7.0907 80.9704 7.19161 81.2326 7.57717L83.7166 11.2305C84.0636 11.741 84.7857 11.8182 85.2329 11.3926L88 8.75928" stroke="#30E0A1" stroke-linecap="round"/>
</g>
<path d="M5 25.9882L6.42546 27.4133C6.93544 27.9231 7.80101 27.742 8.06374 27.0704L9.82388 22.5713C10.1274 21.7956 11.1906 21.7092 11.6154 22.4257L11.9511 22.9921C12.1312 23.2959 12.4582 23.4822 12.8113 23.4822H13.1921C13.6225 23.4822 14.0046 23.7576 14.1407 24.1659L15.2421 27.4693C15.4265 28.0221 16.0425 28.3008 16.5794 28.0744L17.4625 27.7019C17.6877 27.6069 17.8704 27.4327 17.9759 27.2123L18.7862 25.5197C19.161 24.7369 20.2867 24.7704 20.6143 25.5741L22.1929 29.4479C22.4786 30.149 23.4097 30.2906 23.891 29.7061L28.6397 23.938C29.1393 23.331 30.1117 23.5115 30.3604 24.2572L30.7409 25.3985C31.0161 26.2239 32.141 26.3284 32.5636 25.568L33.9867 23.0071C34.1482 22.7166 34.4435 22.5252 34.7746 22.4966L37.2523 22.2822C37.6285 22.2497 37.9543 22.008 38.0945 21.6574L40.0559 16.7552C40.2383 16.2994 40.7248 16.0433 41.2038 16.1511L42.3044 16.3987C42.793 16.5086 43.2876 16.2401 43.4616 15.7704L43.7825 14.9041C44.0814 14.0974 45.1916 14.0195 45.6002 14.7764L48.4399 20.0367C48.7945 20.6936 49.7427 20.6765 50.0733 20.0072L50.1332 19.886C50.3935 19.3591 51.1045 19.2632 51.495 19.7024V19.7024C51.8951 20.1524 52.6265 20.0387 52.8711 19.4885L54.9877 14.7274C55.2193 14.2065 55.8387 13.9843 56.3486 14.2391L57.7084 14.9188C57.8472 14.9882 58.0003 15.0243 58.1555 15.0243H59.0474C59.5249 15.0243 59.9358 14.6867 60.0284 14.2182L60.8239 10.1919C60.9165 9.72345 61.3274 9.38579 61.805 9.38579H63.3856C63.7866 9.38579 64.1489 9.62539 64.3058 9.99446L66.0514 14.0993C66.4148 14.9541 67.6458 14.8947 67.9253 14.0089L69.9788 7.49994C70.0978 7.12285 70.4278 6.85127 70.8207 6.80708L75.4745 6.28367C75.6516 6.26376 75.8201 6.1969 75.9627 6.09001L76.5847 5.62359C77.0386 5.28326 77.6844 5.38827 78.0071 5.85488L78.8899 7.13135C79.1536 7.51268 79.675 7.61084 80.0593 7.3515V7.3515C80.4458 7.0907 80.9704 7.19161 81.2326 7.57717L83.7166 11.2305C84.0636 11.741 84.7857 11.8182 85.2329 11.3926L88 8.75928" stroke="#30E0A1" stroke-linecap="round"/>
<defs>
<filter id="filter0_f_1_4783" x="0.5" y="0.923584" width="92" height="33.6472" filterUnits="userSpaceOnUse" color-interpolation-filters="sRGB">
<feFlood flood-opacity="0" result="BackgroundImageFix"/>
<feBlend mode="normal" in="SourceGraphic" in2="BackgroundImageFix" result="shape"/>
<feGaussianBlur stdDeviation="2" result="effect1_foregroundBlur_1_4783"/>
</filter>
<linearGradient id="paint0_linear_1_4783" x1="38.5" y1="1.50024" x2="38.5" y2="31.0002" gradientUnits="userSpaceOnUse">
<stop stop-color="#30E0A1"/>
<stop offset="1" stop-color="#30E0A1" stop-opacity="0"/>
</linearGradient>
</defs>
</svg>
