<svg width="15" height="14" viewBox="0 0 15 14" fill="none" xmlns="http://www.w3.org/2000/svg">
<path d="M4.16725 4.4548C4.10045 5.1198 4.05357 6.29668 4.47428 6.79761C4.47428 6.79761 4.27623 5.5048 6.05162 3.88277C6.76646 3.2298 6.9317 2.34168 6.68209 1.67558C6.54029 1.29824 6.28131 0.986521 6.05631 0.768865C5.92506 0.640896 6.02584 0.429802 6.21686 0.437458C7.37232 0.485583 9.24498 0.785271 10.0407 2.64902C10.3899 3.46715 10.4157 4.31261 10.2493 5.1723C10.1438 5.72136 9.76881 6.94199 10.6243 7.09183C11.2348 7.19902 11.5301 6.74621 11.6626 6.42027C11.7176 6.28465 11.9087 6.25074 12.0118 6.35902C13.043 7.45386 13.1309 8.74339 12.9176 9.85355C12.5051 11.9995 10.1766 13.5614 7.86334 13.5614C4.9735 13.5614 2.67311 12.0181 2.07662 9.22464C1.83639 8.09699 1.95826 5.86574 3.82154 4.29074C3.95982 4.17261 4.186 4.27761 4.16725 4.4548Z" fill="url(#paint0_radial_1_4867)"/>
<path d="M8.91922 8.46793C7.85399 7.18824 8.33094 5.72809 8.59227 5.14621C8.62742 5.06965 8.53367 4.99746 8.45985 5.04449C8.00164 5.33543 7.06297 6.02012 6.62586 6.98371C6.03406 8.28637 6.07625 8.92403 6.42664 9.70278C6.63758 10.172 6.39266 10.2715 6.26961 10.289C6.15008 10.3065 6.03992 10.2322 5.95203 10.1545C5.70008 9.93027 5.51844 9.63824 5.43172 9.32324C5.41297 9.25543 5.31805 9.23684 5.27469 9.29262C4.94656 9.7159 4.77664 10.3951 4.76844 10.8753C4.74266 12.3595 6.05633 13.5626 7.64539 13.5626C9.64813 13.5626 11.1071 11.4954 9.95633 9.76731C9.62235 9.26418 9.30828 8.93496 8.91922 8.46793Z" fill="url(#paint1_radial_1_4867)"/>
<defs>
<radialGradient id="paint0_radial_1_4867" cx="0" cy="0" r="1" gradientUnits="userSpaceOnUse" gradientTransform="translate(7.291 13.5954) rotate(-179.768) scale(8.27198 12.6679)">
<stop offset="0.3144" stop-color="#FF9800"/>
<stop offset="0.6616" stop-color="#FF6D00"/>
<stop offset="0.9715" stop-color="#F44336"/>
</radialGradient>
<radialGradient id="paint1_radial_1_4867" cx="0" cy="0" r="1" gradientUnits="userSpaceOnUse" gradientTransform="translate(7.75553 5.91281) rotate(90.6201) scale(8.07809 6.51352)">
<stop offset="0.2141" stop-color="#FFF176"/>
<stop offset="0.3275" stop-color="#FFF27D"/>
<stop offset="0.4868" stop-color="#FFF48F"/>
<stop offset="0.6722" stop-color="#FFF7AD"/>
<stop offset="0.7931" stop-color="#FFF9C4"/>
<stop offset="0.8221" stop-color="#FFF8BD" stop-opacity="0.804"/>
<stop offset="0.8627" stop-color="#FFF6AB" stop-opacity="0.529"/>
<stop offset="0.9101" stop-color="#FFF38D" stop-opacity="0.2088"/>
<stop offset="0.9409" stop-color="#FFF176" stop-opacity="0"/>
</radialGradient>
</defs>
</svg>
