<svg width="27" height="33" viewBox="0 0 27 33" fill="none" xmlns="http://www.w3.org/2000/svg">
<path d="M13.5 1.91675C16.5214 5.26537 20.4649 7.00887 24.4949 6.77786C25.0816 9.27812 25.2611 11.9006 25.0228 14.4895C24.7845 17.0784 24.1331 19.5808 23.1075 21.8482C22.0818 24.1155 20.7028 26.1014 19.0524 27.6879C17.4019 29.2744 15.5137 30.4291 13.5 31.0834C11.4863 30.4291 9.59809 29.2744 7.94764 27.6879C6.2972 26.1014 4.91819 24.1155 3.89254 21.8482C2.86689 19.5808 2.21555 17.0784 1.97721 14.4895C1.73887 11.9006 1.91839 9.27812 2.50512 6.77786C6.5351 7.00887 10.4786 5.26537 13.5 1.91675Z" stroke="#24DD57" stroke-width="2" stroke-linecap="round" stroke-linejoin="round"/>
</svg>
