<svg width="22" height="22" viewBox="0 0 22 22" fill="none" xmlns="http://www.w3.org/2000/svg">
<g clip-path="url(#clip0_1_4778)" filter="url(#filter0_d_1_4778)">
<path d="M17.75 5.25024C17.7571 5.19798 17.7571 5.145 17.75 5.09274C17.7435 5.04871 17.7308 5.0058 17.7125 4.96524C17.6927 4.92859 17.6701 4.89349 17.645 4.86024C17.6164 4.81281 17.5811 4.76985 17.54 4.73274L17.45 4.68024C17.4067 4.64796 17.3586 4.62266 17.3075 4.60524H17.1575C17.1118 4.56099 17.0584 4.52541 17 4.50024H13.25C13.0511 4.50024 12.8603 4.57926 12.7196 4.71991C12.579 4.86057 12.5 5.05133 12.5 5.25024C12.5 5.44916 12.579 5.63992 12.7196 5.78057C12.8603 5.92123 13.0511 6.00024 13.25 6.00024H15.3725L12.3725 9.53274L9.13248 7.60524C8.97901 7.51397 8.79802 7.48044 8.62205 7.51069C8.44607 7.54093 8.28666 7.63297 8.17248 7.77024L4.42248 12.2702C4.35933 12.346 4.31175 12.4335 4.28246 12.5277C4.25318 12.6219 4.24277 12.721 4.25182 12.8192C4.26088 12.9175 4.28923 13.0129 4.33524 13.1002C4.38126 13.1875 4.44403 13.2648 4.51998 13.3277C4.65491 13.4396 4.82474 13.5006 4.99998 13.5002C5.11016 13.5004 5.21903 13.4763 5.31884 13.4297C5.41866 13.383 5.50696 13.3149 5.57748 13.2302L8.91498 9.22524L12.1175 11.1452C12.2694 11.2353 12.4482 11.2689 12.6224 11.2401C12.7967 11.2113 12.9552 11.1219 13.07 10.9877L16.25 7.27524V9.00024C16.25 9.19916 16.329 9.38992 16.4696 9.53057C16.6103 9.67123 16.8011 9.75024 17 9.75024C17.1989 9.75024 17.3897 9.67123 17.5303 9.53057C17.671 9.38992 17.75 9.19916 17.75 9.00024V5.25024Z" fill="#30E0A1"/>
</g>
<defs>
<filter id="filter0_d_1_4778" x="-2" y="0.000244141" width="26" height="26" filterUnits="userSpaceOnUse" color-interpolation-filters="sRGB">
<feFlood flood-opacity="0" result="BackgroundImageFix"/>
<feColorMatrix in="SourceAlpha" type="matrix" values="0 0 0 0 0 0 0 0 0 0 0 0 0 0 0 0 0 0 127 0" result="hardAlpha"/>
<feOffset dy="4"/>
<feGaussianBlur stdDeviation="2"/>
<feComposite in2="hardAlpha" operator="out"/>
<feColorMatrix type="matrix" values="0 0 0 0 0 0 0 0 0 0 0 0 0 0 0 0 0 0 0.25 0"/>
<feBlend mode="normal" in2="BackgroundImageFix" result="effect1_dropShadow_1_4778"/>
<feBlend mode="normal" in="SourceGraphic" in2="effect1_dropShadow_1_4778" result="shape"/>
</filter>
<clipPath id="clip0_1_4778">
<rect width="18" height="18" fill="white" transform="translate(2 0.000244141)"/>
</clipPath>
</defs>
</svg>
