<svg width="49" height="45" viewBox="0 0 49 45" fill="none" xmlns="http://www.w3.org/2000/svg">
<path d="M38.1166 15.2998L20.8252 15.3116L18.6373 22.7987H35.8225L31.364 37.9665L17.558 38.0251C14.9336 38.0368 13.0288 35.5333 13.7601 33.0239L23.2137 0.554199H9.43721L0.414074 31.2884C-1.49081 37.7847 3.41589 44.281 10.2275 44.2693L43.0292 44.2165L47.8002 28.1752C49.711 21.7434 44.8633 15.294 38.1166 15.2998Z" fill="#9d9d9db4"/>
<path d="M23.2958 30.2099H21.8037L22.8181 26.8386H26.2091L25.7373 28.4041C25.413 29.477 24.4222 30.2099 23.2958 30.2099Z" fill="#9d9d9db4"/>
<path d="M28.9693 30.2099H27.3416L28.3559 26.8386H31.747L31.2339 28.5331C30.9331 29.5298 30.0131 30.2099 28.9634 30.2099" fill="#9d9d9db4"/>
</svg>
