<svg width="19" height="16" viewBox="0 0 19 16" fill="none" xmlns="http://www.w3.org/2000/svg">
<path d="M12.4829 5.02636L11.7361 6.31618C11.5325 6.7235 11.0573 6.92715 10.65 6.92715C10.4463 6.92715 10.2426 6.85927 10.039 6.79138L7.59511 10.9324C7.86666 11.0682 8.07031 11.3397 8.1382 11.6791C8.20608 12.0186 8.20608 12.358 8.00243 12.6295L7.32357 13.7836C7.11992 14.1909 6.64472 14.4624 6.2374 14.4624C6.03375 14.4624 5.76221 14.3946 5.55855 14.2588L1.34965 11.8149C0.73868 11.4755 0.535024 10.6609 0.874451 10.0499L1.55331 8.89583C1.89273 8.28486 2.70736 8.08121 3.25044 8.42063L5.62644 4.27962C5.01547 3.94019 4.81181 3.12557 5.21912 2.5146L5.96586 1.22477C6.30529 0.613802 7.11992 0.410146 7.73089 0.749573L12.0077 3.19345C12.2792 3.39711 12.5508 3.66865 12.6186 4.00808C12.6865 4.3475 12.6186 4.75482 12.4829 5.02636Z" fill="black"/>
<path d="M18.3892 14.3945C18.1176 14.9376 17.5066 15.277 16.8957 15.277C16.6241 15.277 16.2847 15.2091 16.0132 15.0733L9.42827 11.2039C9.36038 11.0681 9.29249 10.9323 9.22461 10.7966L10.6502 8.35268C10.786 8.35268 10.9217 8.35268 11.1254 8.28479L17.7782 12.1543C18.5928 12.5616 18.8643 13.5799 18.3892 14.3945Z" fill="black"/>
</svg>
