<svg width="19" height="16" viewBox="0 0 19 16" fill="none" xmlns="http://www.w3.org/2000/svg">
<path d="M12.4702 5.02648L11.7234 6.31631C11.5198 6.72362 11.0446 6.92727 10.6373 6.92727C10.4336 6.92727 10.23 6.85939 10.0263 6.7915L7.58242 10.9325C7.85396 11.0683 8.05762 11.3398 8.1255 11.6793C8.19339 12.0187 8.19339 12.3581 7.98973 12.6297L7.31088 13.7837C7.10722 14.191 6.63202 14.4626 6.22471 14.4626C6.02105 14.4626 5.74951 14.3947 5.54585 14.2589L1.33695 11.815C0.725985 11.4756 0.522328 10.661 0.861756 10.05L1.54061 8.89595C1.88004 8.28499 2.69466 8.08133 3.23775 8.42076L5.61374 4.27974C5.00277 3.94031 4.79911 3.12569 5.20643 2.51472L5.95317 1.22489C6.29259 0.613924 7.10722 0.410268 7.71819 0.749695L11.995 3.19357C12.2665 3.39723 12.5381 3.66877 12.6059 4.0082C12.6738 4.34763 12.6059 4.75494 12.4702 5.02648Z" fill="white"/>
<path d="M18.3765 14.3946C18.1049 14.9377 17.4939 15.2771 16.883 15.2771C16.6114 15.2771 16.272 15.2092 16.0005 15.0735L9.41557 11.204C9.34769 11.0682 9.2798 10.9324 9.21191 10.7967L10.6375 8.3528C10.7733 8.3528 10.9091 8.3528 11.1127 8.28491L17.7655 12.1544C18.5801 12.5617 18.8517 13.58 18.3765 14.3946Z" fill="white"/>
</svg>
