<svg width="196" height="43" viewBox="0 0 196 43" fill="none" xmlns="http://www.w3.org/2000/svg">
<rect x="0.0816956" y="0.449219" width="195.6" height="42" rx="21" fill="#3772FF"/>
<path d="M22.2817 33.4492C28.9091 33.4492 34.2817 28.0766 34.2817 21.4492C34.2817 14.8218 28.9091 9.44922 22.2817 9.44922C15.6543 9.44922 10.2817 14.8218 10.2817 21.4492C10.2817 28.0766 15.6543 33.4492 22.2817 33.4492Z" stroke="black" stroke-width="1.2" stroke-linecap="round" stroke-linejoin="round"/>
<path d="M19.2817 17.8076C19.2817 17.2349 19.2817 16.9485 19.4014 16.7886C19.5057 16.6493 19.6654 16.5621 19.839 16.5497C20.0382 16.5355 20.2791 16.6904 20.7608 17.0001L26.4255 20.6417C26.8436 20.9104 27.0526 21.0448 27.1248 21.2157C27.1879 21.365 27.1879 21.5335 27.1248 21.6828C27.0526 21.8536 26.8436 21.988 26.4255 22.2568L20.7608 25.8984C20.2791 26.2081 20.0382 26.3629 19.839 26.3487C19.6654 26.3363 19.5057 26.2491 19.4014 26.1098C19.2817 25.9499 19.2817 25.6636 19.2817 25.0908V17.8076Z" stroke="black" stroke-width="1.2" stroke-linecap="round" stroke-linejoin="round"/>
<rect opacity="0.66" x="46.2817" y="16.6492" width="2.4" height="9.6" rx="1.2" fill="black"/>
<rect opacity="0.66" x="53.4817" y="13.0491" width="2.4" height="16.8" rx="1.2" fill="black"/>
<rect opacity="0.66" x="60.6817" y="19.0491" width="2.4" height="4.8" rx="1.2" fill="black"/>
<rect opacity="0.66" x="67.8817" y="11.8491" width="2.4" height="19.2" rx="1.2" fill="black"/>
<rect opacity="0.66" x="75.0817" y="13.0491" width="2.4" height="16.8" rx="1.2" fill="black"/>
<rect opacity="0.66" x="82.2817" y="15.4492" width="2.4" height="12" rx="1.2" fill="black"/>
<rect opacity="0.66" x="89.4817" y="15.4492" width="2.4" height="12" rx="1.2" fill="#F6FDFD"/>
<rect opacity="0.66" x="96.6817" y="15.4492" width="2.4" height="12" rx="1.2" fill="#F6FDFD"/>
<rect opacity="0.66" x="103.882" y="13.0491" width="2.4" height="16.8" rx="1.2" fill="#F6FDFD"/>
<rect opacity="0.66" x="111.082" y="15.4492" width="2.4" height="12" rx="1.2" fill="#F6FDFD"/>
<rect opacity="0.66" x="118.282" y="11.8491" width="2.4" height="19.2" rx="1.2" fill="#F6FDFD"/>
<rect opacity="0.66" x="125.482" y="15.4492" width="2.4" height="12" rx="1.2" fill="#F6FDFD"/>
<rect opacity="0.66" x="132.682" y="19.0491" width="2.4" height="4.8" rx="1.2" fill="#F6FDFD"/>
<rect opacity="0.66" x="139.882" y="20.249" width="2.4" height="2.4" rx="1.2" fill="#F6FDFD"/>
<path d="M155.026 20.5212C155.026 19.1452 155.25 18.0732 155.698 17.3052C156.146 16.5292 156.93 16.1412 158.05 16.1412C159.162 16.1412 159.942 16.5292 160.39 17.3052C160.838 18.0732 161.062 19.1452 161.062 20.5212C161.062 21.9212 160.838 23.0092 160.39 23.7852C159.942 24.5612 159.162 24.9492 158.05 24.9492C156.93 24.9492 156.146 24.5612 155.698 23.7852C155.25 23.0092 155.026 21.9212 155.026 20.5212ZM159.982 20.5212C159.982 19.8252 159.934 19.2372 159.838 18.7572C159.75 18.2692 159.562 17.8772 159.274 17.5812C158.994 17.2852 158.586 17.1372 158.05 17.1372C157.506 17.1372 157.09 17.2852 156.802 17.5812C156.522 17.8772 156.334 18.2692 156.238 18.7572C156.15 19.2372 156.106 19.8252 156.106 20.5212C156.106 21.2412 156.15 21.8452 156.238 22.3332C156.334 22.8212 156.522 23.2132 156.802 23.5092C157.09 23.8052 157.506 23.9532 158.05 23.9532C158.586 23.9532 158.994 23.8052 159.274 23.5092C159.562 23.2132 159.75 22.8212 159.838 22.3332C159.934 21.8452 159.982 21.2412 159.982 20.5212ZM163.089 25.0212C162.881 25.0212 162.705 24.9492 162.561 24.8052C162.417 24.6612 162.345 24.4852 162.345 24.2772C162.345 24.0692 162.417 23.8932 162.561 23.7492C162.705 23.6052 162.881 23.5332 163.089 23.5332C163.289 23.5332 163.457 23.6052 163.593 23.7492C163.737 23.8932 163.809 24.0692 163.809 24.2772C163.809 24.4852 163.737 24.6612 163.593 24.8052C163.457 24.9492 163.289 25.0212 163.089 25.0212ZM163.089 19.8852C162.881 19.8852 162.705 19.8132 162.561 19.6692C162.417 19.5252 162.345 19.3492 162.345 19.1412C162.345 18.9332 162.417 18.7572 162.561 18.6132C162.705 18.4692 162.881 18.3972 163.089 18.3972C163.289 18.3972 163.457 18.4692 163.593 18.6132C163.737 18.7572 163.809 18.9332 163.809 19.1412C163.809 19.3492 163.737 19.5252 163.593 19.6692C163.457 19.8132 163.289 19.8852 163.089 19.8852ZM164.984 24.0732C166 23.2572 166.796 22.5892 167.372 22.0692C167.948 21.5412 168.432 20.9932 168.824 20.4252C169.224 19.8492 169.424 19.2852 169.424 18.7332C169.424 18.2132 169.296 17.8052 169.04 17.5092C168.792 17.2052 168.388 17.0532 167.828 17.0532C167.284 17.0532 166.86 17.2252 166.556 17.5692C166.26 17.9052 166.1 18.3572 166.076 18.9252H165.02C165.052 18.0292 165.324 17.3372 165.836 16.8492C166.348 16.3612 167.008 16.1172 167.816 16.1172C168.64 16.1172 169.292 16.3452 169.772 16.8012C170.26 17.2572 170.504 17.8852 170.504 18.6852C170.504 19.3492 170.304 19.9972 169.904 20.6292C169.512 21.2532 169.064 21.8052 168.56 22.2852C168.056 22.7572 167.412 23.3092 166.628 23.9412H170.756V24.8532H164.984V24.0732ZM172.018 20.5212C172.018 19.1452 172.242 18.0732 172.69 17.3052C173.138 16.5292 173.922 16.1412 175.042 16.1412C176.154 16.1412 176.934 16.5292 177.382 17.3052C177.83 18.0732 178.054 19.1452 178.054 20.5212C178.054 21.9212 177.83 23.0092 177.382 23.7852C176.934 24.5612 176.154 24.9492 175.042 24.9492C173.922 24.9492 173.138 24.5612 172.69 23.7852C172.242 23.0092 172.018 21.9212 172.018 20.5212ZM176.974 20.5212C176.974 19.8252 176.926 19.2372 176.83 18.7572C176.742 18.2692 176.554 17.8772 176.266 17.5812C175.986 17.2852 175.578 17.1372 175.042 17.1372C174.498 17.1372 174.082 17.2852 173.794 17.5812C173.514 17.8772 173.326 18.2692 173.23 18.7572C173.142 19.2372 173.098 19.8252 173.098 20.5212C173.098 21.2412 173.142 21.8452 173.23 22.3332C173.326 22.8212 173.514 23.2132 173.794 23.5092C174.082 23.8052 174.498 23.9532 175.042 23.9532C175.578 23.9532 175.986 23.8052 176.266 23.5092C176.554 23.2132 176.742 22.8212 176.83 22.3332C176.926 21.8452 176.974 21.2412 176.974 20.5212Z" fill="black"/>
</svg>
