<svg width="97" height="95" viewBox="0 0 97 95" fill="none" xmlns="http://www.w3.org/2000/svg">
<path d="M88.9167 43.5417V31.6667C88.9167 27.2944 85.2977 23.75 80.8334 23.75H73.0344C70.3318 23.75 67.8079 22.4271 66.3087 20.2247L63.0247 15.4003C61.5255 13.1979 59.0017 11.875 56.299 11.875H40.7011C37.9984 11.875 35.4746 13.1979 33.9754 15.4003L30.6914 20.2247C29.1922 22.4271 26.6683 23.75 23.9656 23.75H16.1667C11.7024 23.75 8.08337 27.2944 8.08337 31.6667V67.2917C8.08337 71.6639 11.7024 75.2083 16.1667 75.2083H48.5M64.6667 71.25H88.9167M76.7917 59.375V83.125M60.625 47.5C60.625 54.0584 55.1965 59.375 48.5 59.375C41.8036 59.375 36.375 54.0584 36.375 47.5C36.375 40.9416 41.8036 35.625 48.5 35.625C55.1965 35.625 60.625 40.9416 60.625 47.5Z" stroke="white" stroke-width="2" stroke-linecap="round" stroke-linejoin="round"/>
</svg>
