<svg width="20" height="20" viewBox="0 0 20 20" fill="none" xmlns="http://www.w3.org/2000/svg">
<path d="M2.50008 7.50008C2.96032 7.50008 3.33341 7.12699 3.33341 6.66675V4.16675C3.33341 3.70651 3.70651 3.33341 4.16675 3.33341H6.66675C7.12699 3.33341 7.50008 2.96032 7.50008 2.50008C7.50008 2.03984 7.12699 1.66675 6.66675 1.66675H4.16675C2.78604 1.66675 1.66675 2.78604 1.66675 4.16675V6.66675C1.66675 7.12699 2.03984 7.50008 2.50008 7.50008Z" fill="#777E91"/>
<path d="M3.33341 13.3334C3.33341 12.8732 2.96032 12.5001 2.50008 12.5001C2.03984 12.5001 1.66675 12.8732 1.66675 13.3334V15.8334C1.66675 17.2141 2.78604 18.3334 4.16675 18.3334H6.66675C7.12699 18.3334 7.50008 17.9603 7.50008 17.5001C7.50008 17.0398 7.12699 16.6667 6.66675 16.6667H4.16675C3.70651 16.6667 3.33341 16.2937 3.33341 15.8334V13.3334Z" fill="#777E91"/>
<path d="M16.6667 13.3334C16.6667 12.8732 17.0398 12.5001 17.5001 12.5001C17.9603 12.5001 18.3334 12.8732 18.3334 13.3334V15.8334C18.3334 17.2141 17.2141 18.3334 15.8334 18.3334H13.3334C12.8732 18.3334 12.5001 17.9603 12.5001 17.5001C12.5001 17.0398 12.8732 16.6667 13.3334 16.6667H15.8334C16.2937 16.6667 16.6667 16.2937 16.6667 15.8334V13.3334Z" fill="#777E91"/>
<path d="M16.6667 6.66675C16.6667 7.12699 17.0398 7.50008 17.5001 7.50008C17.9603 7.50008 18.3334 7.12699 18.3334 6.66675V4.16675C18.3334 2.78604 17.2141 1.66675 15.8334 1.66675H13.3334C12.8732 1.66675 12.5001 2.03984 12.5001 2.50008C12.5001 2.96032 12.8732 3.33341 13.3334 3.33341H15.8334C16.2937 3.33341 16.6667 3.70651 16.6667 4.16675V6.66675Z" fill="#777E91"/>
</svg>
