<svg width="23" height="23" viewBox="0 0 23 23" fill="none" xmlns="http://www.w3.org/2000/svg">
<g clip-path="url(#clip0_1_3395)" filter="url(#filter0_d_1_3395)">
<path d="M11.5 1.25C12.962 2.68512 14.8701 3.43234 16.8201 3.33333C17.104 4.40487 17.1909 5.5288 17.0755 6.63832C16.9602 7.74784 16.6451 8.82033 16.1488 9.79203C15.6525 10.7637 14.9852 11.6148 14.1866 12.2948C13.388 12.9747 12.4744 13.4696 11.5 13.75C10.5256 13.4696 9.61198 12.9747 8.81338 12.2948C8.01478 11.6148 7.34751 10.7637 6.85123 9.79203C6.35495 8.82033 6.03978 7.74784 5.92445 6.63832C5.80913 5.5288 5.896 4.40487 6.1799 3.33333C8.12989 3.43234 10.038 2.68512 11.5 1.25Z" stroke="#24DD57" stroke-width="2" stroke-linecap="round" stroke-linejoin="round"/>
</g>
<defs>
<filter id="filter0_d_1_3395" x="0" y="0" width="23" height="23" filterUnits="userSpaceOnUse" color-interpolation-filters="sRGB">
<feFlood flood-opacity="0" result="BackgroundImageFix"/>
<feColorMatrix in="SourceAlpha" type="matrix" values="0 0 0 0 0 0 0 0 0 0 0 0 0 0 0 0 0 0 127 0" result="hardAlpha"/>
<feOffset dy="4"/>
<feGaussianBlur stdDeviation="2"/>
<feComposite in2="hardAlpha" operator="out"/>
<feColorMatrix type="matrix" values="0 0 0 0 0 0 0 0 0 0 0 0 0 0 0 0 0 0 0.25 0"/>
<feBlend mode="normal" in2="BackgroundImageFix" result="effect1_dropShadow_1_3395"/>
<feBlend mode="normal" in="SourceGraphic" in2="effect1_dropShadow_1_3395" result="shape"/>
</filter>
<clipPath id="clip0_1_3395">
<rect width="15" height="15" fill="white" transform="translate(4)"/>
</clipPath>
</defs>
</svg>
