<svg width="42" height="41" viewBox="0 0 42 41" fill="none" xmlns="http://www.w3.org/2000/svg">
<rect x="0.416092" y="0.449219" width="40.8269" height="39.8382" rx="19.9191" fill="#7C7C7C" fill-opacity="0.3"/>
<path d="M14.9855 23.5684L13.4255 21.1204L11.9255 23.5684H10.7855L12.9095 20.3044L10.7855 16.9924H12.0215L13.5815 19.4284L15.0695 16.9924H16.2095L14.0975 20.2444L16.2215 23.5684H14.9855ZM16.8277 15.8884V14.8924H19.0837V23.5684H17.9797V15.8884H16.8277ZM21.4875 23.6404C21.2795 23.6404 21.1035 23.5684 20.9595 23.4244C20.8155 23.2804 20.7435 23.1044 20.7435 22.8964C20.7435 22.6884 20.8155 22.5124 20.9595 22.3684C21.1035 22.2244 21.2795 22.1524 21.4875 22.1524C21.6875 22.1524 21.8555 22.2244 21.9915 22.3684C22.1355 22.5124 22.2075 22.6884 22.2075 22.8964C22.2075 23.1044 22.1355 23.2804 21.9915 23.4244C21.8555 23.5684 21.6875 23.6404 21.4875 23.6404ZM29.011 15.8404H24.799V18.5764C24.983 18.3204 25.255 18.1124 25.615 17.9524C25.975 17.7844 26.363 17.7004 26.779 17.7004C27.443 17.7004 27.983 17.8404 28.399 18.1204C28.815 18.3924 29.111 18.7484 29.287 19.1884C29.471 19.6204 29.563 20.0804 29.563 20.5684C29.563 21.1444 29.455 21.6604 29.239 22.1164C29.023 22.5724 28.691 22.9324 28.243 23.1964C27.803 23.4604 27.255 23.5924 26.599 23.5924C25.759 23.5924 25.079 23.3764 24.559 22.9444C24.039 22.5124 23.723 21.9364 23.611 21.2164H24.679C24.783 21.6724 25.003 22.0284 25.339 22.2844C25.675 22.5404 26.099 22.6684 26.611 22.6684C27.243 22.6684 27.719 22.4804 28.039 22.1044C28.359 21.7204 28.519 21.2164 28.519 20.5924C28.519 19.9684 28.359 19.4884 28.039 19.1524C27.719 18.8084 27.247 18.6364 26.623 18.6364C26.199 18.6364 25.827 18.7404 25.507 18.9484C25.195 19.1484 24.967 19.4244 24.823 19.7764H23.791V14.8804H29.011V15.8404Z" fill="#797C7B"/>
</svg>
