<svg width="12" height="13" viewBox="0 0 12 13" fill="none" xmlns="http://www.w3.org/2000/svg">
<path d="M5.11765 8.33333H3.35294C2.7289 8.33333 2.13042 8.59087 1.68916 9.04929C1.2479 9.50772 1 10.1295 1 10.7778V12M8.05882 3.44444C8.05882 4.79447 7.00538 5.88889 5.70588 5.88889C4.40639 5.88889 3.35294 4.79447 3.35294 3.44444C3.35294 2.09441 4.40639 1 5.70588 1C7.00538 1 8.05882 2.09441 8.05882 3.44444ZM7.47059 9.55555C7.47059 10.0418 7.65651 10.5081 7.98746 10.8519C8.3184 11.1957 8.76726 11.3889 9.23529 11.3889C9.70332 11.3889 10.1522 11.1957 10.4831 10.8519C10.8141 10.5081 11 10.0418 11 9.55555C11 9.06932 10.8141 8.60301 10.4831 8.25919C10.1522 7.91538 9.70332 7.72222 9.23529 7.72222C8.76726 7.72222 8.3184 7.91538 7.98746 8.25919C7.65651 8.60301 7.47059 9.06932 7.47059 9.55555Z" stroke="#48F74F" stroke-width="2" stroke-linecap="round" stroke-linejoin="round"/>
</svg>
